<svg height="44" viewBox="0 0 14 44" width="14" xmlns="http://www.w3.org/2000/svg"><path d="m6.787116 28.099739c-.722686 0-1.133244.502861-1.133244.90831.459807.162262.640532.55143.640532.940735 0 .810966-.558449 1.638214-2.250143 1.638214-1.264647 0-2.168057-.519005-2.168057-1.427383-.00141-2.811144 5.969329-3.125441 5.861247-6.27405 2.781253.90699 6.320423-.29238 6.271735-2.988087 0-3.600817-6.027669-3.973911-6.027669-6.049997 0-.892098.788353-1.443598 2.167989-1.443598 1.166076 0 1.741012.454157 1.741012 1.216486 0 .50279-.246391.811035-.771936 1.038078.114918.632559.607698.908312 1.166077.908312.673368 0 1.281066-.437944 1.281066-1.378679-.099205-3.312615-7.406318-2.760559-7.292318.956947-.00007 3.08181 5.863432 3.406199 5.863432 6.196049 0 .90831-.903339 1.427315-2.167988 1.427315-1.691764 0-2.250142-.827179-2.250142-1.638214 0-.389237.180655-.778542.640532-.940737-.11858-1.219961-2.11613-1.23193-2.457076.109033-1.816263-.89648-5.468163-.58246-5.454847 1.708214 0 .940735.607699 1.378678 1.281136 1.378678.558378 0 1.05116-.27575 1.166076-.90831-.525615-.227042-.771936-.535216-.771936-1.038079 0-.762329.574866-1.216484 1.740943-1.216484 1.022343 0 1.719595.303095 2.012418.822865 1.219837 2.741491-5.922546 2.764801-5.872028 6.670799-.000071 1.832764 1.625955 3.27636 4.352393 3.27636 4.374517.054969 4.703836-3.74123 2.430796-3.892777"/></svg>