<svg height="20" viewBox="0 0 20 20" width="20" xmlns="http://www.w3.org/2000/svg"><path d="m9.775476 15.90023c-.760997 0-1.193321.52952-1.193321.956463.484184.170864.674489.580664.674489.990607 0 .85396-.588054 1.725061-2.369431 1.725061-1.331691 0-2.282994-.546518-2.282994-1.503054-.001484-2.960172 6.285785-3.291131 6.171974-6.606659 2.928697.955073 6.65549-.307879 6.604222-3.146496 0-3.791709-6.347219-4.184583-6.347219-6.370729 0-.939392.830147-1.520128 2.282922-1.520128 1.227895 0 1.83331.478233 1.83331 1.280975 0 .529446-.259452.854031-.812859 1.093111.12101.666094.639914.956465 1.227896.956465.709064 0 1.34898-.461161 1.34898-1.451769-.104464-3.488228-7.798954-2.906906-7.678911 1.007679-.000074 3.245188 6.174274 3.586774 6.174274 6.524524 0 .956463-.951229 1.502982-2.282921 1.502982-1.78145 0-2.369431-.871031-2.369431-1.725061 0-.409872.190233-.819816.674489-.99061-.124866-1.284635-2.228313-1.297238-2.587334.114814-1.912549-.944006-5.75805-.613338-5.744028 1.798773 0 .990606.639915 1.451766 1.349054 1.451766.587979 0 1.106885-.290368 1.227893-.956463-.553479-.239077-.812859-.563589-.812859-1.093111 0-.802743.605342-1.280973 1.833237-1.280973 1.076541 0 1.810757.319162 2.119103.866487 1.284505 2.886828-6.236521 2.911372-6.183325 7.024442-.000074 1.929926 1.712153 3.450052 4.583129 3.450052 4.606426.057883 4.953204-3.939567 2.559661-4.099148"/></svg>