<?xml version="1.0" standalone="no"?>
<!DOCTYPE svg PUBLIC "-//W3C//DTD SVG 20010904//EN"
 "http://www.w3.org/TR/2001/REC-SVG-20010904/DTD/svg10.dtd">
<svg version="1.0" xmlns="http://www.w3.org/2000/svg"
 width="800.000000pt" height="800.000000pt" viewBox="0 0 800.000000 800.000000"
 preserveAspectRatio="xMidYMid meet">
<metadata>
Created by potrace 1.14, written by Peter Selinger 2001-2017
</metadata>
<g transform="translate(0.000000,800.000000) scale(0.100000,-0.100000)"
fill="#000000" stroke="none">
<path d="M4990 7400 c-403 -49 -766 -212 -986 -442 -134 -141 -213 -289 -249
-467 -25 -119 -17 -347 15 -446 82 -256 275 -468 640 -702 52 -34 235 -141
405 -238 358 -205 503 -297 632 -401 226 -184 337 -359 365 -577 10 -79 9
-103 -6 -169 -61 -275 -379 -435 -826 -415 -409 18 -655 179 -716 467 -40 190
20 352 163 432 49 28 52 31 47 61 -18 103 -116 217 -222 258 -79 31 -218 37
-298 14 -142 -41 -252 -130 -310 -250 -19 -38 -34 -76 -34 -83 0 -10 -6 -12
-17 -7 -168 73 -331 118 -507 141 -172 23 -490 15 -638 -15 -503 -102 -778
-366 -778 -745 1 -307 174 -496 453 -496 185 0 313 73 377 213 47 105 47 109
-12 137 -68 32 -154 112 -184 171 -51 103 -49 259 5 367 52 103 145 170 298
214 69 21 100 23 278 23 150 0 219 -4 275 -17 169 -38 290 -98 370 -185 83
-91 115 -188 108 -329 -12 -231 -193 -407 -692 -671 -619 -329 -703 -378 -891
-518 -275 -206 -443 -431 -512 -691 -24 -89 -26 -117 -26 -269 0 -152 2 -180
26 -269 101 -376 398 -667 829 -811 362 -121 869 -137 1242 -40 459 119 776
437 794 796 5 112 -7 175 -51 269 -116 247 -466 348 -690 199 -78 -52 -146
-156 -147 -225 0 -26 6 -34 39 -49 56 -25 120 -91 149 -155 20 -43 27 -75 30
-145 8 -166 -39 -289 -152 -400 -151 -148 -383 -215 -701 -201 -352 15 -580
130 -677 342 -19 43 -22 65 -22 179 0 115 3 139 26 203 40 110 102 206 197
305 158 165 290 255 761 525 497 285 644 386 810 558 178 185 258 348 276 567
4 42 8 77 10 77 1 0 44 -11 96 -25 223 -59 414 -80 653 -72 380 13 700 107
972 286 228 149 384 352 459 596 27 86 28 99 28 290 0 188 -2 205 -27 290 -91
303 -299 551 -662 790 -145 95 -267 164 -580 330 -422 223 -585 325 -703 443
-107 107 -154 209 -154 332 -1 97 21 172 74 250 72 108 187 180 368 227 137
37 411 44 551 15 183 -38 292 -112 352 -240 30 -62 32 -75 32 -172 0 -94 -3
-111 -28 -165 -33 -71 -102 -140 -182 -181 -67 -35 -68 -45 -20 -142 76 -152
210 -220 411 -210 121 7 210 46 288 127 94 99 130 198 129 356 -1 394 -300
677 -813 771 -101 19 -411 27 -520 14z"/>
</g>
</svg>
